HIERARCHY
ROOT Hips
{
	OFFSET 0.000000 83.214638 0.000000
	CHANNELS 6 Xposition Yposition Zposition Xrotation Yrotation Zrotation
	JOINT Pelvis
	{
		OFFSET 0.000000 0.000000 0.000000
		CHANNELS 3 Xrotation Yrotation Zrotation
		JOINT LeftUpLeg
		{
			OFFSET 8.479700 -4.795502 -0.379100
			CHANNELS 3 Xrotation Yrotation Zrotation
			JOINT LeftLeg
			{
				OFFSET 0.024144 -32.555107 0.112900
				CHANNELS 3 Xrotation Yrotation Zrotation
				JOINT LeftFoot
				{
					OFFSET -0.024144 -32.638630 -3.012600
					CHANNELS 3 Xrotation Yrotation Zrotation
					JOINT LeftToeBase
					{
						OFFSET 0.970200 -13.225400 11.864200
						CHANNELS 3 Xrotation Yrotation Zrotation
						End Site
						{
							OFFSET 0.000000 12.319262 0.000000
						}
					}
					JOINT LFootTongue
					{
						OFFSET 1.142400 -1.059800 6.665200
						CHANNELS 3 Xrotation Yrotation Zrotation
						End Site
						{
							OFFSET 0.000000 12.319262 0.000000
						}
					}
				}
				JOINT LeftPantLeg
				{
					OFFSET 0.918482 -16.533964 -2.284700
					CHANNELS 3 Xrotation Yrotation Zrotation
					End Site
					{
						OFFSET 0.350399 24.744368 0.000000
					}
				}
			}
		}
		JOINT RightUpLeg
		{
			OFFSET -8.479700 -4.795502 -0.379100
			CHANNELS 3 Xrotation Yrotation Zrotation
			JOINT RightLeg
			{
				OFFSET -0.023144 -32.555092 0.112900
				CHANNELS 3 Xrotation Yrotation Zrotation
				JOINT RightFoot
				{
					OFFSET 0.023144 -32.638641 -3.012700
					CHANNELS 3 Xrotation Yrotation Zrotation
					JOINT RightToeBase
					{
						OFFSET -0.970200 -13.225400 11.864200
						CHANNELS 3 Xrotation Yrotation Zrotation
						End Site
						{
							OFFSET 0.000000 12.319244 0.000000
						}
					}
					JOINT RFootTongue
					{
						OFFSET -1.142200 -1.059800 6.665200
						CHANNELS 3 Xrotation Yrotation Zrotation
						End Site
						{
							OFFSET 0.000000 12.319243 0.000000
						}
					}
				}
				JOINT RightPantLeg
				{
					OFFSET -0.919482 -16.533978 -2.284800
					CHANNELS 3 Xrotation Yrotation Zrotation
					End Site
					{
						OFFSET -0.350400 24.744419 0.000000
					}
				}
			}
		}
	}
	JOINT Spine
	{
		OFFSET 0.000000 7.722000 1.166200
		CHANNELS 3 Xrotation Yrotation Zrotation
		JOINT Spine1
		{
			OFFSET 0.000000 12.024101 0.248800
			CHANNELS 3 Xrotation Yrotation Zrotation
			JOINT Spine2
			{
				OFFSET 0.000000 11.502998 -0.491200
				CHANNELS 3 Xrotation Yrotation Zrotation
				JOINT Neck
				{
					OFFSET 0.000000 18.430702 -3.123100
					CHANNELS 3 Xrotation Yrotation Zrotation
					JOINT Head
					{
						OFFSET 0.000000 9.051102 1.034000
						CHANNELS 3 Xrotation Yrotation Zrotation
						JOINT HairB
						{
							OFFSET 0.208400 24.786102 24.822300
							CHANNELS 3 Xrotation Yrotation Zrotation
							End Site
							{
								OFFSET 0.000000 32.263779 0.000000
							}
						}
						JOINT HairA
						{
							OFFSET -7.081100 24.428299 23.196600
							CHANNELS 3 Xrotation Yrotation Zrotation
							End Site
							{
								OFFSET 0.000000 32.263779 0.000000
							}
						}
						JOINT Hat
						{
							OFFSET 16.728800 15.048294 -15.439601
							CHANNELS 3 Xrotation Yrotation Zrotation
							End Site
							{
								OFFSET 0.000000 32.263779 0.000000
							}
						}
					}
				}
				JOINT LeftShoulder
				{
					OFFSET 6.197800 13.665199 -4.064700
					CHANNELS 3 Xrotation Yrotation Zrotation
					JOINT LeftArm
					{
						OFFSET 7.778100 -0.187103 -1.709300
						CHANNELS 3 Xrotation Yrotation Zrotation
						JOINT LeftForeArm
						{
							OFFSET 22.049376 0.000000 0.000000
							CHANNELS 3 Xrotation Yrotation Zrotation
							JOINT LeftHand
							{
								OFFSET 23.009392 0.000000 0.000000
								CHANNELS 3 Xrotation Yrotation Zrotation
								JOINT LeftHandThumb1
								{
									OFFSET 3.507191 -2.063065 3.133727
									CHANNELS 3 Xrotation Yrotation Zrotation
									JOINT LeftHandThumb2
									{
										OFFSET 3.101337 -1.790558 1.790558
										CHANNELS 3 Xrotation Yrotation Zrotation
										JOINT LeftHandThumb3
										{
											OFFSET 3.058640 -1.765907 1.765906
											CHANNELS 3 Xrotation Yrotation Zrotation
											End Site
											{
												OFFSET -0.415260 3.926476 -0.049563
											}
										}
									}
								}
								JOINT LeftHandIndex1
								{
									OFFSET 11.334419 -0.901459 3.706815
									CHANNELS 3 Xrotation Yrotation Zrotation
									JOINT LeftHandIndex2
									{
										OFFSET 3.283112 0.000000 0.000000
										CHANNELS 3 Xrotation Yrotation Zrotation
										JOINT LeftHandIndex3
										{
											OFFSET 3.323853 0.000000 0.000000
											CHANNELS 3 Xrotation Yrotation Zrotation
											End Site
											{
												OFFSET -1.135597 3.097809 0.402452
											}
										}
									}
								}
								JOINT LeftHandMiddle1
								{
									OFFSET 11.335861 0.000000 0.000000
									CHANNELS 3 Xrotation Yrotation Zrotation
									JOINT LeftHandMiddle2
									{
										OFFSET 3.410492 0.000000 0.000000
										CHANNELS 3 Xrotation Yrotation Zrotation
										JOINT LeftHandMiddle3
										{
											OFFSET 3.312172 0.000000 0.000000
											CHANNELS 3 Xrotation Yrotation Zrotation
											End Site
											{
												OFFSET -1.150200 3.080154 0.400270
											}
										}
									}
								}
								JOINT LeftHandRing1
								{
									OFFSET 11.514786 -0.013176 -3.003090
									CHANNELS 3 Xrotation Yrotation Zrotation
									JOINT LeftHandRing2
									{
										OFFSET 3.053307 0.000000 0.000000
										CHANNELS 3 Xrotation Yrotation Zrotation
										JOINT LeftHandRing3
										{
											OFFSET 3.295807 0.000000 0.000000
											CHANNELS 3 Xrotation Yrotation Zrotation
											End Site
											{
												OFFSET -1.281006 3.013344 0.375733
											}
										}
									}
								}
								JOINT LeftHandPinky1
								{
									OFFSET 10.518692 -0.960396 -5.730441
									CHANNELS 3 Xrotation Yrotation Zrotation
									JOINT LeftHandPinky2
									{
										OFFSET 2.861649 0.000000 0.000000
										CHANNELS 3 Xrotation Yrotation Zrotation
										JOINT LeftHandPinky3
										{
											OFFSET 2.863380 0.000000 0.000000
											CHANNELS 3 Xrotation Yrotation Zrotation
											End Site
											{
												OFFSET -0.843597 2.711159 0.369971
											}
										}
									}
								}
							}
							JOINT LSleeve
							{
								OFFSET 6.676277 -0.344902 -1.011730
								CHANNELS 3 Xrotation Yrotation Zrotation
								End Site
								{
									OFFSET 0.000000 14.885353 0.000000
								}
							}
						}
					}
				}
				JOINT RightShoulder
				{
					OFFSET -6.197800 13.665199 -4.064700
					CHANNELS 3 Xrotation Yrotation Zrotation
					JOINT RightArm
					{
						OFFSET -7.778100 -0.187103 -1.709300
						CHANNELS 3 Xrotation Yrotation Zrotation
						JOINT RightForeArm
						{
							OFFSET -22.049376 0.000000 0.000000
							CHANNELS 3 Xrotation Yrotation Zrotation
							JOINT RightHand
							{
								OFFSET -23.009392 0.000000 0.000000
								CHANNELS 3 Xrotation Yrotation Zrotation
								JOINT RightHandThumb1
								{
									OFFSET -3.507191 -2.063065 3.133727
									CHANNELS 3 Xrotation Yrotation Zrotation
									JOINT RightHandThumb2
									{
										OFFSET -3.101337 -1.790558 1.790558
										CHANNELS 3 Xrotation Yrotation Zrotation
										JOINT RightHandThumb3
										{
											OFFSET -3.058640 -1.765907 1.765906
											CHANNELS 3 Xrotation Yrotation Zrotation
											End Site
											{
												OFFSET 0.415260 3.926476 -0.049563
											}
										}
									}
								}
								JOINT RightHandIndex1
								{
									OFFSET -11.334419 -0.901459 3.706815
									CHANNELS 3 Xrotation Yrotation Zrotation
									JOINT RightHandIndex2
									{
										OFFSET -3.283112 0.000000 0.000000
										CHANNELS 3 Xrotation Yrotation Zrotation
										JOINT RightHandIndex3
										{
											OFFSET -3.323853 0.000000 0.000000
											CHANNELS 3 Xrotation Yrotation Zrotation
											End Site
											{
												OFFSET 1.135597 3.097809 0.402452
											}
										}
									}
								}
								JOINT RightHandMiddle1
								{
									OFFSET -11.335861 0.000000 0.000000
									CHANNELS 3 Xrotation Yrotation Zrotation
									JOINT RightHandMiddle2
									{
										OFFSET -3.410492 0.000000 0.000000
										CHANNELS 3 Xrotation Yrotation Zrotation
										JOINT RightHandMiddle3
										{
											OFFSET -3.312172 0.000000 0.000000
											CHANNELS 3 Xrotation Yrotation Zrotation
											End Site
											{
												OFFSET 1.150200 3.080154 0.400270
											}
										}
									}
								}
								JOINT RightHandRing1
								{
									OFFSET -11.514786 -0.013176 -3.003090
									CHANNELS 3 Xrotation Yrotation Zrotation
									JOINT RightHandRing2
									{
										OFFSET -3.053307 0.000000 0.000000
										CHANNELS 3 Xrotation Yrotation Zrotation
										JOINT RightHandRing3
										{
											OFFSET -3.295807 0.000000 0.000000
											CHANNELS 3 Xrotation Yrotation Zrotation
											End Site
											{
												OFFSET 1.281006 3.013344 0.375733
											}
										}
									}
								}
								JOINT RightHandPinky1
								{
									OFFSET -10.518692 -0.960396 -5.730441
									CHANNELS 3 Xrotation Yrotation Zrotation
									JOINT RightHandPinky2
									{
										OFFSET -2.861649 0.000000 0.000000
										CHANNELS 3 Xrotation Yrotation Zrotation
										JOINT RightHandPinky3
										{
											OFFSET -2.863380 0.000000 0.000000
											CHANNELS 3 Xrotation Yrotation Zrotation
											End Site
											{
												OFFSET 0.843597 2.711159 0.369971
											}
										}
									}
								}
							}
							JOINT RSleeve
							{
								OFFSET -6.676277 -0.344902 -1.011730
								CHANNELS 3 Xrotation Yrotation Zrotation
								End Site
								{
									OFFSET 0.000000 14.885353 0.000000
								}
							}
						}
					}
				}
				JOINT Backpack
				{
					OFFSET 0.000000 -2.471497 36.677502
					CHANNELS 3 Xrotation Yrotation Zrotation
					End Site
					{
						OFFSET 0.000000 20.427315 0.000000
					}
				}
				JOINT Hood
				{
					OFFSET 0.000000 18.754097 -10.431000
					CHANNELS 3 Xrotation Yrotation Zrotation
					JOINT Hood1
					{
						OFFSET 0.000000 -5.011002 -7.685901
						CHANNELS 3 Xrotation Yrotation Zrotation
						End Site
						{
							OFFSET 0.000000 9.175140 0.000000
						}
					}
				}
				JOINT LHoodieString
				{
					OFFSET 5.250500 16.397697 3.089900
					CHANNELS 3 Xrotation Yrotation Zrotation
					JOINT LHoodieString1
					{
						OFFSET 0.257700 -6.364304 3.694600
						CHANNELS 3 Xrotation Yrotation Zrotation
						JOINT LHoodieString2
						{
							OFFSET 0.000000 -9.643799 2.679100
							CHANNELS 3 Xrotation Yrotation Zrotation
							End Site
							{
								OFFSET 0.000000 10.009018 0.000000
							}
						}
					}
				}
				JOINT RHoodieString
				{
					OFFSET -5.250500 16.397697 3.089900
					CHANNELS 3 Xrotation Yrotation Zrotation
					JOINT RHoodieString1
					{
						OFFSET -0.257700 -6.364304 3.694600
						CHANNELS 3 Xrotation Yrotation Zrotation
						JOINT RHoodieString2
						{
							OFFSET 0.000000 -9.643799 2.679100
							CHANNELS 3 Xrotation Yrotation Zrotation
							End Site
							{
								OFFSET 0.000000 10.009018 0.000000
							}
						}
					}
				}
			}
			JOINT LBackpack_Strap
			{
				OFFSET 15.223200 -7.719803 -6.610900
				CHANNELS 3 Xrotation Yrotation Zrotation
				End Site
				{
					OFFSET 0.000000 16.040596 0.000000
				}
			}
			JOINT RBackpack_Strap
			{
				OFFSET -15.223000 -7.719803 -6.610900
				CHANNELS 3 Xrotation Yrotation Zrotation
				End Site
				{
					OFFSET 0.000000 16.040596 0.000000
				}
			}
		}
	}
	JOINT BoyFacialAnim_Joint
	{
		OFFSET 1.000000 -82.208099 -1.550900
		CHANNELS 3 Xrotation Yrotation Zrotation
		End Site
		{
			OFFSET 0.000000 30.012791 0.000000
		}
	}
}
MOTION
Frames: 4
Frame Time: 0.016667
-64.113434 16.822655 3.188122 -59.192639 9.178173 99.042025 -0.000000 0.000001 -0.000000 -35.178838 26.224474 3.532543 63.763607 -3.543734 -7.666814 -20.346773 -11.207003 3.585931 -0.000001 -0.000002 0.000001 -0.000001 -0.000002 0.000001 -0.000001 -0.000000 -0.000000 -56.118982 -6.278213 -35.080186 118.816714 10.176195 7.727610 0.857946 9.137771 29.611565 -0.000000 0.000000 0.000000 -0.000000 0.000000 0.000000 0.000000 -0.000000 -0.000001 13.668438 -0.316334 -6.429862 16.440301 0.246667 -3.275165 16.425632 0.382575 -3.359051 55.837872 6.471001 -15.932342 -15.707538 9.351477 1.833023 -0.000000 -0.000001 0.000000 -0.000000 -0.000001 0.000000 -0.000000 -0.000001 0.000000 5.814965 1.516418 -4.688133 -74.915257 -6.740957 -27.974771 58.640801 -0.227358 0.365238 -133.094774 1.338640 -9.402836 40.109958 -15.297158 -0.360508 5.639819 28.097921 11.338840 -0.000001 -0.000004 0.000002 6.882267 2.840082 -61.140391 8.248004 7.640065 -89.897878 -0.000003 0.000001 -0.000002 -2.345498 4.688869 -62.655210 8.754160 9.897077 -87.051328 0.000001 0.000002 0.000000 -9.042442 10.045690 -60.766171 8.524089 9.508834 -66.893042 -0.000001 0.000001 -0.000000 -17.946889 14.754998 -51.485843 8.868450 8.667058 -84.811989 0.000003 0.000000 -0.000000 0.000003 -0.000000 -0.000000 4.350991 9.519743 -3.915174 -1.908428 -4.831216 1.339502 32.754616 33.258776 -23.829321 -6.484600 12.966948 -27.297560 -1.264353 -6.049205 -2.222019 3.622117 -28.238606 -7.467034 0.000000 0.000001 -0.000001 5.510564 -12.536730 32.643752 0.964239 -4.576394 40.090417 -0.000004 0.000001 0.000002 2.422432 -10.452758 50.257666 1.705359 -6.329526 40.569961 0.000003 0.000004 -0.000005 1.697890 -16.683526 49.417839 3.312900 -5.897088 49.275225 -0.000002 0.000001 0.000001 -0.128086 -24.863955 64.179552 8.350126 -6.902220 80.012948 -0.000000 -0.000001 -0.000002 -0.000001 0.000004 0.000001 -0.000002 -0.000000 0.000001 -0.000002 -0.000000 0.000001 -0.000002 -0.000000 0.000001 -0.000002 -0.000000 0.000001 -0.000002 -0.000000 0.000001 -0.000000 0.000001 -0.000001 -0.000002 -0.000000 0.000001 -0.000002 -0.000000 0.000001 -0.000000 0.000001 -0.000001 -0.000000 -0.000000 -0.000000 -0.000000 -0.000000 -0.000000 -0.000000 0.000001 -0.000000 
-65.131531 14.009262 3.691439 -58.686884 3.798729 101.296575 -0.000000 -0.000002 0.000000 -33.292077 21.995900 3.100063 65.835688 1.956118 -7.480269 -25.219787 -9.002445 1.826320 0.000000 0.000002 -0.000000 0.000000 0.000002 -0.000000 -0.000001 -0.000000 -0.000000 -54.688324 -7.731234 -33.325046 120.382876 3.509838 5.725172 -7.682647 5.979242 27.625632 -0.000001 -0.000001 -0.000001 -0.000001 -0.000001 -0.000001 -0.000001 -0.000001 0.000000 15.951191 -0.918000 -5.472701 15.237939 -0.553111 -2.719565 15.233186 -0.442769 -2.765201 59.396104 3.808040 -15.534174 -14.123792 7.966005 -0.046232 0.000000 -0.000000 0.000001 0.000000 -0.000000 0.000001 0.000000 -0.000000 0.000001 5.850626 3.867364 -9.147232 -79.175457 -4.790789 -29.369629 66.580746 -0.196860 0.415270 -130.528549 2.100587 -1.414914 40.109948 -15.297158 -0.360500 5.639820 28.097933 11.338841 -0.000002 -0.000000 0.000002 6.882266 2.840078 -61.140391 8.248005 7.640067 -89.897878 0.000002 0.000000 -0.000005 -2.345498 4.688868 -62.655204 8.754160 9.897075 -87.051328 0.000003 -0.000001 -0.000003 -9.042441 10.045688 -60.766171 8.524086 9.508837 -66.893042 -0.000000 -0.000001 -0.000000 -17.946891 14.755000 -51.485840 8.868448 8.667058 -84.811989 -0.000001 -0.000001 -0.000002 -0.000001 0.000002 0.000001 3.987314 5.771293 -5.369515 0.856450 3.213919 0.708518 26.740069 31.874936 -18.503117 -6.515407 15.387226 -26.510765 -1.549564 -6.169134 -1.948565 3.754909 -28.218817 -7.731335 -0.000002 0.000003 -0.000002 5.611884 -12.685515 32.943775 1.033065 -4.592728 40.333356 -0.000003 0.000001 0.000004 2.535927 -10.495718 50.782275 1.733157 -6.345996 40.670973 0.000004 0.000003 -0.000003 1.857096 -16.770037 49.979288 3.310367 -5.941018 49.419359 0.000001 -0.000000 0.000001 0.126708 -25.012619 64.844313 8.394886 -7.019057 80.688488 0.000001 -0.000002 -0.000002 0.000000 -0.000002 -0.000002 -0.000000 0.000000 0.000001 -0.000000 0.000000 0.000001 -0.000000 0.000000 0.000001 -0.000000 0.000000 0.000001 -0.000000 0.000000 0.000001 -0.000001 0.000000 0.000001 -0.000000 0.000000 0.000001 -0.000000 0.000000 0.000001 -0.000001 0.000000 0.000001 -0.000000 -0.000000 0.000001 -0.000000 -0.000000 0.000001 -0.000000 -0.000002 0.000000 
-65.772057 12.456749 4.146737 -57.954456 -0.885333 103.232920 0.000001 0.000002 -0.000000 -29.416447 17.081765 2.476267 66.679059 10.184235 -8.244889 -30.925389 -4.470135 -5.686204 -0.000000 -0.000000 -0.000000 -0.000000 -0.000000 -0.000000 -0.000003 0.000000 -0.000001 -52.856450 -8.467753 -30.759344 120.814025 -4.780936 3.897996 -13.540405 3.877992 23.751918 -0.000000 -0.000000 0.000000 -0.000000 -0.000000 0.000000 0.000002 0.000000 0.000000 17.601244 -1.662586 -4.345225 13.624180 -1.732718 -2.465776 13.638205 -1.655711 -2.445541 61.075511 1.954504 -14.888460 -12.574470 6.608043 -1.023408 -0.000000 0.000000 0.000001 -0.000000 0.000000 0.000001 -0.000000 0.000000 0.000001 5.241395 7.707916 -14.772695 -82.451496 -2.394245 -28.832879 71.492130 -0.210165 0.553438 -123.104461 0.006954 2.277029 40.109958 -15.297158 -0.360504 5.639823 28.097935 11.338842 -0.000000 -0.000001 -0.000002 6.882266 2.840080 -61.140391 8.248002 7.640065 -89.897878 -0.000001 -0.000000 -0.000004 -2.345501 4.688868 -62.655204 8.754157 9.897076 -87.051328 0.000001 0.000001 0.000000 -9.042445 10.045688 -60.766171 8.524089 9.508832 -66.893035 -0.000003 -0.000000 -0.000000 -17.946891 14.754993 -51.485843 8.868453 8.667058 -84.811989 0.000001 -0.000000 -0.000002 0.000001 0.000003 0.000001 4.001943 5.115518 -8.837090 0.941035 11.676206 -0.032734 16.412180 34.300141 -10.963364 -9.500792 4.579498 -16.821523 -1.829265 -6.289138 -1.679233 3.885980 -28.199322 -7.991217 -0.000001 -0.000000 0.000000 5.712097 -12.831499 33.221186 1.100950 -4.608022 40.554334 -0.000002 -0.000001 0.000002 2.647838 -10.536405 51.279858 1.759851 -6.362492 40.753014 0.000002 0.000001 -0.000005 2.014554 -16.852419 50.513764 3.308017 -5.984395 49.543337 -0.000001 -0.000003 -0.000000 0.379774 -25.154246 65.481775 8.441277 -7.134655 81.335013 -0.000000 -0.000003 -0.000000 -0.000002 -0.000000 -0.000000 0.000002 0.000000 0.000001 0.000002 0.000000 0.000001 0.000002 0.000000 0.000001 0.000002 0.000000 0.000001 0.000002 0.000000 0.000001 0.000002 -0.000002 0.000002 0.000002 0.000000 0.000001 0.000002 0.000000 0.000001 0.000002 -0.000002 0.000002 -0.000001 -0.000001 0.000002 -0.000001 -0.000001 0.000002 0.000001 0.000002 -0.000000 
-66.089798 11.677704 4.402303 -57.752596 -4.882154 105.674856 -0.000000 0.000001 -0.000000 -25.250424 12.878966 0.637836 67.146893 19.747791 -8.852256 -33.839397 0.705665 -12.979893 -0.000000 0.000000 0.000000 -0.000000 0.000000 0.000000 0.000000 -0.000000 0.000000 -50.585481 -7.756960 -30.671828 119.297150 -6.678054 3.372430 -14.374277 2.172122 19.464566 -0.000001 0.000000 0.000000 -0.000001 0.000000 0.000000 0.000002 0.000001 -0.000000 17.559609 -1.763559 -4.986078 12.355796 -1.761859 -1.940307 12.378813 -1.624623 -1.926828 59.987687 0.650063 -12.018806 -12.691763 2.856319 1.482940 -0.000000 0.000000 -0.000001 -0.000000 0.000000 -0.000001 -0.000000 0.000000 -0.000001 3.701486 9.640400 -19.253678 -85.769766 -1.001390 -27.598651 69.277980 -0.255669 0.574462 -109.058498 -7.133570 4.798806 40.109948 -15.297156 -0.360507 5.639823 28.097935 11.338849 -0.000000 -0.000001 -0.000001 6.882264 2.840079 -61.140384 8.248003 7.640067 -89.897878 0.000000 -0.000000 -0.000000 -2.345501 4.688865 -62.655204 8.754158 9.897076 -87.051328 -0.000001 -0.000001 0.000004 -9.042444 10.045687 -60.766171 8.524088 9.508837 -66.893042 -0.000001 -0.000000 -0.000001 -17.946891 14.754996 -51.485843 8.868455 8.667058 -84.811982 0.000001 0.000002 -0.000005 0.000001 0.000001 -0.000000 3.553653 17.233481 -9.962801 5.185755 5.341656 -2.433873 15.662647 31.146414 -9.027867 -12.315966 0.733331 -13.862420 -2.103284 -6.409000 -1.414497 4.016402 -28.183509 -8.246969 0.000001 0.000001 -0.000000 5.811196 -12.974728 33.475365 1.167859 -4.622510 40.751859 -0.000001 -0.000001 0.000003 2.758042 -10.575085 51.750158 1.786558 -6.378084 40.814332 0.000002 -0.000004 0.000001 2.170311 -16.931259 51.020683 3.305868 -6.027660 49.645954 0.000002 0.000004 -0.000001 0.630588 -25.289004 66.090597 8.488913 -7.248981 81.951034 -0.000003 0.000001 -0.000001 -0.000002 -0.000001 -0.000002 0.000001 0.000002 -0.000001 0.000001 0.000002 -0.000001 0.000001 0.000002 -0.000001 0.000001 0.000002 -0.000001 0.000001 0.000002 -0.000003 0.000001 -0.000001 -0.000000 0.000001 0.000002 -0.000001 0.000001 0.000002 -0.000003 0.000001 -0.000001 -0.000000 0.000001 0.000001 -0.000001 0.000001 0.000001 -0.000001 -0.000000 0.000001 -0.000000 
